<?xml version="1.0" standalone="no"?>
<!DOCTYPE svg PUBLIC "-//W3C//DTD SVG 20010904//EN"
 "http://www.w3.org/TR/2001/REC-SVG-20010904/DTD/svg10.dtd">
<svg version="1.0" xmlns="http://www.w3.org/2000/svg"
 width="1401.000000pt" height="1401.000000pt" viewBox="0 0 1401.000000 1401.000000"
 preserveAspectRatio="xMidYMid meet">
<metadata>
Created by potrace 1.14, written by Peter Selinger 2001-2017
</metadata>
<g transform="translate(0.000000,1401.000000) scale(0.100000,-0.100000)"
fill="#000000" stroke="none">
<path d="M4028 12995 c-1 -1 -39 -6 -83 -9 -366 -31 -730 -121 -1055 -261
-216 -93 -479 -252 -635 -385 -126 -108 -221 -203 -303 -305 -31 -38 -59 -72
-62 -75 -35 -33 -164 -246 -224 -371 -44 -92 -121 -305 -137 -379 -4 -19 -14
-67 -23 -106 -9 -39 -18 -88 -21 -110 -3 -21 -7 -48 -10 -59 -15 -72 -19 -390
-19 -1555 0 -1158 5 -1527 19 -1550 2 -3 6 -26 9 -51 34 -283 152 -600 331
-890 140 -227 405 -491 671 -667 357 -236 826 -410 1264 -467 25 -3 56 -8 70
-10 136 -21 588 -28 765 -12 641 57 1247 298 1673 666 135 117 293 292 371
411 20 30 44 64 54 74 9 11 17 23 17 27 0 4 19 40 43 81 95 161 183 394 230
608 24 107 29 138 42 238 2 20 7 62 11 92 4 30 8 492 8 1027 l1 972 -1425 -2
-1425 -2 0 -745 0 -745 565 -5 566 -5 -2 -185 c-3 -198 -17 -281 -65 -386 -72
-156 -216 -297 -394 -387 -45 -22 -226 -90 -233 -87 -2 1 -63 -10 -137 -26
-74 -15 -340 -12 -442 6 -192 33 -369 106 -498 205 -64 49 -86 71 -160 160
-41 49 -94 165 -117 255 l-22 85 0 1290 c0 710 3 1315 6 1345 46 405 471 714
977 712 424 -2 780 -202 946 -532 21 -41 39 -76 40 -78 1 -1 44 18 96 42 52
24 117 54 144 66 44 20 320 147 505 232 36 17 88 40 115 53 57 26 153 70 270
124 44 21 144 66 222 102 78 35 142 69 142 74 1 11 -84 185 -121 251 -224 392
-554 714 -950 927 -286 153 -682 273 -997 303 -31 3 -67 8 -81 11 -27 5 -526
14 -532 8z"/>
<path d="M9939 12996 c-2 -2 -47 -7 -99 -11 -51 -3 -96 -8 -100 -9 -3 -2 -34
-7 -70 -10 -36 -4 -83 -11 -105 -16 -22 -5 -58 -11 -80 -14 -49 -8 -278 -68
-360 -95 -285 -93 -537 -223 -764 -394 -87 -65 -287 -254 -337 -317 -241 -307
-349 -551 -419 -945 -8 -48 -19 -223 -19 -320 0 -782 376 -1437 1055 -1840
138 -82 238 -132 369 -185 58 -23 114 -46 125 -50 145 -60 446 -133 715 -174
64 -10 234 -45 295 -61 33 -9 67 -18 75 -20 59 -13 252 -84 336 -124 337 -161
468 -357 400 -596 -64 -221 -270 -368 -591 -421 -123 -21 -429 -9 -580 21
-275 56 -543 166 -769 317 -69 47 -223 177 -287 245 l-76 80 -59 -55 c-32 -31
-124 -117 -204 -192 -80 -75 -157 -148 -171 -161 -15 -13 -86 -80 -159 -149
-73 -69 -144 -136 -159 -149 -14 -13 -82 -77 -151 -141 -69 -65 -146 -137
-172 -162 -45 -41 -57 -62 -40 -70 4 -1 36 -39 72 -83 171 -212 425 -449 665
-621 290 -208 665 -384 1000 -469 260 -66 378 -80 680 -80 199 0 285 5 405 20
46 6 125 17 140 20 8 1 35 6 60 10 25 4 54 9 65 12 11 2 31 6 45 9 14 3 33 7
42 10 9 3 25 6 35 8 262 52 659 210 923 369 84 51 250 163 260 176 3 4 15 14
27 22 61 42 210 182 302 285 255 283 432 685 468 1059 15 152 7 570 -11 627
-3 7 -7 33 -10 58 -3 25 -10 70 -16 100 -6 30 -14 69 -17 85 -10 61 -84 270
-127 362 -129 271 -293 469 -561 678 -79 61 -245 159 -390 230 -275 133 -611
243 -985 321 -41 9 -82 17 -90 19 -8 2 -53 11 -100 20 -649 126 -987 322
-1053 611 -7 32 -13 70 -12 84 19 247 137 427 345 528 69 33 150 64 150 57 0
-3 12 0 26 6 15 5 43 12 63 15 20 3 47 7 61 10 36 6 237 6 290 0 253 -32 475
-108 699 -242 110 -65 240 -164 333 -252 l76 -73 24 20 c21 17 386 299 468
361 19 14 56 43 84 65 28 22 69 54 91 70 22 16 47 35 55 42 43 34 408 316 425
327 19 13 19 14 -6 47 -33 43 -124 142 -214 233 -406 409 -872 671 -1400 786
-133 29 -127 28 -182 35 -26 4 -59 9 -73 11 -14 2 -52 6 -85 10 -33 3 -71 8
-85 10 -28 6 -556 15 -561 10z"/>
<path d="M1529 4376 c-2 -2 -31 -7 -64 -11 -158 -17 -361 -77 -524 -157 -510
-250 -854 -735 -929 -1308 -14 -112 -7 -396 13 -504 98 -514 412 -944 869
-1189 160 -86 398 -162 576 -184 79 -10 10970 -11 11055 -1 650 74 1202 531
1406 1163 94 289 101 668 18 960 -135 474 -452 856 -884 1064 -151 73 -291
117 -501 158 -40 8 -11027 16 -11035 9z"/>
</g>
</svg>
