<svg xmlns="http://www.w3.org/2000/svg" viewBox="0 0 1401 1198.67"><defs><style>.a,.c{fill:#262626;}.a,.b{stroke:#000;stroke-miterlimit:10;}.b{fill:#fff;}</style></defs><rect class="a" x="0.5" y="862.17" width="1400" height="336" rx="168"/><rect class="b" x="76" y="938.17" width="914" height="186" rx="93"/><path class="c" d="M821,688.91c-39-95-197-73-197,20v243c0,111,207,110,207,0v-26H718v-150h285v176c0,163-136,245-278,245-140,0-280-82-280-245v-243c0-160,140-240,280-240,92,0,197,38,246,151Z" transform="translate(-299.5 -468.91)"/><path class="c" d="M1165,962.91c71,86,227,90,232,14,2-40-63-63-121-71-114-18-218-90-218-225,0-139,126-212,256-212,86,0,169,24,242,113l-117,90c-74-79-201-76-204,6,2,34,39,54,94,66,126,23,252,67,244,241-6,137-150,212-280,212-85,0-175-43-241-128Z" transform="translate(-299.5 -468.91)"/></svg>